<?xml version="1.0" encoding="iso-8859-1"?>
<!-- Generator: Adobe Illustrator 19.0.0, SVG Export Plug-In . SVG Version: 6.00 Build 0)  -->
<svg xmlns="http://www.w3.org/2000/svg" xmlns:xlink="http://www.w3.org/1999/xlink" version="1.1" id="Layer_1" x="0px" y="0px" viewBox="0 0 511.969 511.969" style="enable-background:new 0 0 511.969 511.969;" xml:space="preserve" width="512px" height="512px">
<g>
	<g>
		<path d="M426.631,437.316h-10.656v-21.342c0-5.891-4.781-10.656-10.656-10.656h-14.467l-16.047-224.814    c-1.234-17.193-16.264-31.178-33.482-31.178H170.654c-17.233,0-32.256,13.984-33.49,31.178L121.11,405.318h-14.452    c-5.891,0-10.664,4.766-10.664,10.656v21.342H85.331c-5.89,0-10.671,4.766-10.671,10.656v53.34    c0,5.875,4.781,10.656,10.671,10.656h341.3c5.905,0,10.686-4.781,10.686-10.656v-53.34    C437.317,442.082,432.537,437.316,426.631,437.316z M158.444,182.027c0.438-6.163,6.031-11.374,12.21-11.374h170.668    c6.172,0,11.766,5.211,12.203,11.374l15.952,223.291H266.649v-6.25l18.209-18.217c2-2,3.125-4.719,3.125-7.531v-17.904    c25.201-12,42.654-37.717,42.654-67.434c0-41.17-33.482-74.66-74.652-74.66c-41.169,0-74.66,33.49-74.66,74.66    c0,29.717,17.46,55.434,42.662,67.434v17.904c0,2.812,1.125,5.531,3.125,7.531l18.21,18.217v6.25h-102.83L158.444,182.027z     M223.987,316.168v14.436c-12.944-9.748-21.334-25.217-21.334-42.621c0-29.404,23.928-53.333,53.333-53.333    c29.405,0,53.34,23.929,53.34,53.333c0,17.404-8.405,32.873-21.342,42.621v-14.436h-0.001    c6.625-7.531,10.656-17.391,10.656-28.186c0-23.523-19.125-42.662-42.654-42.662c-23.522,0-42.662,19.139-42.662,42.662    C213.323,298.777,217.354,308.636,223.987,316.168z M255.985,266.646c10.867,0,19.858,8.18,21.154,18.695    c-5.64-4.984-13.045-8.016-21.154-8.016c-8.108,0.001-15.515,3.032-21.163,8.016C236.126,274.826,245.118,266.646,255.985,266.646    z M245.322,309.324c0-5.891,4.781-10.688,10.663-10.688c5.883,0,10.664,4.797,10.664,10.688v59.559l-10.664,10.671l-10.663-10.672    V309.324z M117.329,426.629h277.304v10.688H117.329V426.629z M415.976,490.625h-0.001h-21.342v-10.654    c0-5.891-4.766-10.656-10.656-10.656s-10.656,4.766-10.656,10.656v10.654h-21.342v-10.654c0-5.891-4.781-10.656-10.656-10.656    c-5.905,0-10.686,4.766-10.686,10.656v10.654h-21.312v-10.654c0-5.891-4.78-10.656-10.686-10.656    c-5.875,0-10.656,4.766-10.656,10.656v10.654h-21.334v-10.654c0-5.891-4.773-10.656-10.664-10.656    c-5.89,0-10.663,4.766-10.663,10.656v10.654h-21.335v-10.654c0-5.891-4.773-10.656-10.664-10.656    c-5.89,0-10.671,4.766-10.671,10.656v10.654h-21.327v-10.654c0-5.891-4.781-10.656-10.671-10.656    c-5.891,0-10.664,4.766-10.664,10.656v10.654h-21.334v-10.654c0-5.891-4.773-10.656-10.664-10.656    c-5.891,0-10.664,4.766-10.664,10.656v10.654H95.995v-31.998h10.664H405.32h10.656V490.625z" fill="#333333"/>
	</g>
</g>
<g>
	<g>
		<path d="M85.331,245.32H10.664C4.773,245.32,0,250.094,0,255.984c0,5.889,4.773,10.662,10.664,10.662h74.667    c5.891,0,10.664-4.773,10.664-10.662C95.995,250.094,91.222,245.32,85.331,245.32z" fill="#333333"/>
	</g>
</g>
<g>
	<g>
		<path d="M501.313,245.32h-74.682c-5.875,0-10.656,4.773-10.656,10.664c0,5.889,4.781,10.662,10.656,10.662h74.682    c5.875,0,10.656-4.773,10.656-10.662C511.969,250.094,507.188,245.32,501.313,245.32z" fill="#333333"/>
	</g>
</g>
<g>
	<g>
		<path d="M477.675,127.992c-2.953-5.102-9.469-6.852-14.577-3.906l-64.652,37.334c-5.093,2.944-6.843,9.468-3.905,14.569    c1.966,3.422,5.56,5.335,9.248,5.335c1.812,0,3.64-0.461,5.312-1.429l64.668-37.334    C478.878,139.616,480.628,133.092,477.675,127.992z" fill="#333333"/>
	</g>
</g>
<g>
	<g>
		<path d="M383.978,34.295c-5.094-2.945-11.625-1.195-14.562,3.905l-37.342,64.66c-2.937,5.102-1.187,11.625,3.906,14.569    c1.688,0.969,3.516,1.43,5.312,1.43c3.688,0,7.281-1.914,9.25-5.335l37.342-64.66C390.822,43.763,389.072,37.24,383.978,34.295z" fill="#333333"/>
	</g>
</g>
<g>
	<g>
		<path d="M255.985,0c-5.89,0-10.663,4.772-10.663,10.663v74.667c0,5.89,4.773,10.664,10.663,10.664    c5.891,0,10.664-4.773,10.664-10.664V10.664C266.649,4.773,261.876,0,255.985,0z" fill="#333333"/>
	</g>
</g>
<g>
	<g>
		<path d="M179.897,102.86l-37.334-64.66c-2.945-5.101-9.468-6.851-14.569-3.905c-5.101,2.944-6.851,9.468-3.906,14.569    l37.333,64.66c1.977,3.421,5.562,5.335,9.242,5.335c1.812,0,3.648-0.461,5.328-1.43    C181.092,114.485,182.842,107.961,179.897,102.86z" fill="#333333"/>
	</g>
</g>
<g>
	<g>
		<path d="M113.525,161.42l-64.66-37.334c-5.101-2.945-11.625-1.195-14.569,3.906c-2.946,5.1-1.196,11.624,3.905,14.569    l64.66,37.334c1.68,0.968,3.508,1.429,5.32,1.429c3.688,0,7.273-1.913,9.25-5.335C120.376,170.887,118.626,164.365,113.525,161.42    z" fill="#333333"/>
	</g>
</g>
<g>
</g>
<g>
</g>
<g>
</g>
<g>
</g>
<g>
</g>
<g>
</g>
<g>
</g>
<g>
</g>
<g>
</g>
<g>
</g>
<g>
</g>
<g>
</g>
<g>
</g>
<g>
</g>
<g>
</g>
</svg>
