<?xml version="1.0" encoding="iso-8859-1"?>
<!-- Generator: Adobe Illustrator 19.0.0, SVG Export Plug-In . SVG Version: 6.00 Build 0)  -->
<svg xmlns="http://www.w3.org/2000/svg" xmlns:xlink="http://www.w3.org/1999/xlink" version="1.1" id="Layer_1" x="0px" y="0px" viewBox="0 0 460.8 460.8" style="enable-background:new 0 0 460.8 460.8;" xml:space="preserve" width="512px" height="512px">
<g>
	<g>
		<path d="M409.6,275.2l-81.05-31.892C345.82,210.442,358.4,171.556,358.4,128c0-70.692-57.308-128-128-128s-128,57.308-128,128    c0,53.258,18.821,99.502,42.015,136.33L76.8,243.2L0,409.6l166.4,51.2l128-51.2l166.4,51.2L409.6,275.2z M155.663,417.321    l-102.39-31.503l44.262-95.903l67.374,21.053L155.663,417.321z M181.709,413.317l7.951-91.433    c22.61,23.557,40.74,36.516,40.74,36.516s20.209-14.469,44.549-40.566l5.105,56.146L181.709,413.317z M230.308,308.183    C197.637,277.652,140.8,212.398,140.8,128c0-49.408,40.192-89.6,89.6-89.6S320,78.592,320,128    C320,211.861,262.948,277.499,230.308,308.183z M305.695,372.9l-0.031-0.01l-7.496-82.447c3.4-4.424,6.774-9.042,10.107-13.844    l69.412,27.31l27.474,99.594L305.695,372.9z" fill="#FFFFFF"/>
	</g>
</g>
<g>
	<g>
		<path d="M230.4,64c-35.292,0-64,28.708-64,64c0,35.292,28.708,64,64,64s64-28.708,64-64S265.692,64,230.4,64z M230.4,166.4    c-21.176,0-38.4-17.224-38.4-38.4s17.224-38.4,38.4-38.4s38.4,17.224,38.4,38.4C268.8,149.176,251.576,166.4,230.4,166.4z" fill="#FFFFFF"/>
	</g>
</g>
<g>
</g>
<g>
</g>
<g>
</g>
<g>
</g>
<g>
</g>
<g>
</g>
<g>
</g>
<g>
</g>
<g>
</g>
<g>
</g>
<g>
</g>
<g>
</g>
<g>
</g>
<g>
</g>
<g>
</g>
</svg>